{
	"asset":{
		"generator":"Khronos glTF Blender I/O v5.0.21",
		"version":"2.0"
	},
	"scene":0,
	"scenes":[
		{
			"name":"Scene",
			"nodes":[
				0,
				1,
				2
			]
		}
	],
	"nodes":[
		{
			"mesh":0,
			"name":"arena",
			"scale":[
				60,
				35,
				90
			]
		},
		{
			"mesh":1,
			"name":"goal_1",
			"scale":[
				16.754899978637695,
				6.71088981628418,
				0.30000001192092896
			],
			"translation":[
				0,
				0,
				-89.9000015258789
			]
		},
		{
			"mesh":2,
			"name":"goal_2",
			"scale":[
				16.754899978637695,
				6.71088981628418,
				0.30000001192092896
			],
			"translation":[
				0,
				0,
				89.9000015258789
			]
		}
	],
	"meshes":[
		{
			"name":"arena",
			"primitives":[
				{
					"attributes":{
						"POSITION":0,
						"NORMAL":1,
						"TEXCOORD_0":2
					},
					"indices":3
				}
			]
		},
		{
			"name":"goal_1",
			"primitives":[
				{
					"attributes":{
						"POSITION":4,
						"NORMAL":5,
						"TEXCOORD_0":6
					},
					"indices":7
				}
			]
		},
		{
			"name":"goal_2",
			"primitives":[
				{
					"attributes":{
						"POSITION":8,
						"NORMAL":9,
						"TEXCOORD_0":10
					},
					"indices":11
				}
			]
		}
	],
	"accessors":[
		{
			"bufferView":0,
			"componentType":5126,
			"count":40,
			"max":[
				1.0115469694137573,
				1.0115469694137573,
				1.0115469694137573
			],
			"min":[
				-1.0115469694137573,
				-1.0115469694137573,
				-1.0115469694137573
			],
			"type":"VEC3"
		},
		{
			"bufferView":1,
			"componentType":5126,
			"count":40,
			"type":"VEC3"
		},
		{
			"bufferView":2,
			"componentType":5126,
			"count":40,
			"type":"VEC2"
		},
		{
			"bufferView":3,
			"componentType":5123,
			"count":60,
			"type":"SCALAR"
		},
		{
			"bufferView":4,
			"componentType":5126,
			"count":20,
			"max":[
				1,
				1,
				1
			],
			"min":[
				-1,
				-1,
				-1
			],
			"type":"VEC3"
		},
		{
			"bufferView":5,
			"componentType":5126,
			"count":20,
			"type":"VEC3"
		},
		{
			"bufferView":6,
			"componentType":5126,
			"count":20,
			"type":"VEC2"
		},
		{
			"bufferView":7,
			"componentType":5123,
			"count":30,
			"type":"SCALAR"
		},
		{
			"bufferView":8,
			"componentType":5126,
			"count":20,
			"max":[
				1,
				1,
				1
			],
			"min":[
				-1,
				-1,
				-1
			],
			"type":"VEC3"
		},
		{
			"bufferView":9,
			"componentType":5126,
			"count":20,
			"type":"VEC3"
		},
		{
			"bufferView":10,
			"componentType":5126,
			"count":20,
			"type":"VEC2"
		},
		{
			"bufferView":11,
			"componentType":5123,
			"count":30,
			"type":"SCALAR"
		}
	],
	"bufferViews":[
		{
			"buffer":0,
			"byteLength":480,
			"byteOffset":0,
			"target":34962
		},
		{
			"buffer":0,
			"byteLength":480,
			"byteOffset":480,
			"target":34962
		},
		{
			"buffer":0,
			"byteLength":320,
			"byteOffset":960,
			"target":34962
		},
		{
			"buffer":0,
			"byteLength":120,
			"byteOffset":1280,
			"target":34963
		},
		{
			"buffer":0,
			"byteLength":240,
			"byteOffset":1400,
			"target":34962
		},
		{
			"buffer":0,
			"byteLength":240,
			"byteOffset":1640,
			"target":34962
		},
		{
			"buffer":0,
			"byteLength":160,
			"byteOffset":1880,
			"target":34962
		},
		{
			"buffer":0,
			"byteLength":60,
			"byteOffset":2040,
			"target":34963
		},
		{
			"buffer":0,
			"byteLength":240,
			"byteOffset":2100,
			"target":34962
		},
		{
			"buffer":0,
			"byteLength":240,
			"byteOffset":2340,
			"target":34962
		},
		{
			"buffer":0,
			"byteLength":160,
			"byteOffset":2580,
			"target":34962
		},
		{
			"buffer":0,
			"byteLength":60,
			"byteOffset":2740,
			"target":34963
		}
	],
	"buffers":[
		{
			"byteLength":2800,
			"uri":"data:application/octet-stream;base64,"
		}
	]
}
