{
	"asset":{
		"generator":"Khronos glTF Blender I/O v5.0.21",
		"version":"2.0"
	},
	"scene":0,
	"scenes":[
		{
			"name":"Scene",
			"nodes":[
				0,
				1,
				2
			]
		}
	],
	"nodes":[
		{
			"mesh":0,
			"name":"goal_1",
			"scale":[
				16.754899978637695,
				6.71088981628418,
				0.30000001192092896
			],
			"translation":[
				0,
				0,
				-160
			]
		},
		{
			"mesh":1,
			"name":"goal_2",
			"scale":[
				16.754899978637695,
				6.71088981628418,
				0.30000001192092896
			],
			"translation":[
				0,
				0,
				160
			]
		},
		{
			"mesh":2,
			"name":"arena",
			"scale":[
				44.90488815307617,
				28.167097091674805,
				21.386920928955078
			],
			"translation":[
				-2.183310031890869,
				1.533560037612915,
				-111.94100189208984
			]
		}
	],
	"meshes":[
		{
			"name":"goal_1",
			"primitives":[
				{
					"attributes":{
						"POSITION":0,
						"NORMAL":1,
						"TEXCOORD_0":2
					},
					"indices":3
				}
			]
		},
		{
			"name":"goal_2",
			"primitives":[
				{
					"attributes":{
						"POSITION":4,
						"NORMAL":5,
						"TEXCOORD_0":6
					},
					"indices":3
				}
			]
		},
		{
			"name":"arena",
			"primitives":[
				{
					"attributes":{
						"POSITION":7,
						"NORMAL":8,
						"TEXCOORD_0":9
					},
					"indices":10
				}
			]
		}
	],
	"accessors":[
		{
			"bufferView":0,
			"componentType":5126,
			"count":16,
			"max":[
				1,
				1,
				1
			],
			"min":[
				-1,
				-1,
				-1
			],
			"type":"VEC3"
		},
		{
			"bufferView":1,
			"componentType":5126,
			"count":16,
			"type":"VEC3"
		},
		{
			"bufferView":2,
			"componentType":5126,
			"count":16,
			"type":"VEC2"
		},
		{
			"bufferView":3,
			"componentType":5123,
			"count":24,
			"type":"SCALAR"
		},
		{
			"bufferView":4,
			"componentType":5126,
			"count":16,
			"max":[
				1,
				1,
				1
			],
			"min":[
				-1,
				-1,
				-1
			],
			"type":"VEC3"
		},
		{
			"bufferView":5,
			"componentType":5126,
			"count":16,
			"type":"VEC3"
		},
		{
			"bufferView":6,
			"componentType":5126,
			"count":16,
			"type":"VEC2"
		},
		{
			"bufferView":7,
			"componentType":5126,
			"count":121,
			"max":[
				1.4002116918563843,
				1.2024973630905151,
				12.701274871826172
			],
			"min":[
				-1.3029659986495972,
				-1.311381459236145,
				-2.233112096786499
			],
			"type":"VEC3"
		},
		{
			"bufferView":8,
			"componentType":5126,
			"count":121,
			"type":"VEC3"
		},
		{
			"bufferView":9,
			"componentType":5126,
			"count":121,
			"type":"VEC2"
		},
		{
			"bufferView":10,
			"componentType":5123,
			"count":195,
			"type":"SCALAR"
		}
	],
	"bufferViews":[
		{
			"buffer":0,
			"byteLength":192,
			"byteOffset":0,
			"target":34962
		},
		{
			"buffer":0,
			"byteLength":192,
			"byteOffset":192,
			"target":34962
		},
		{
			"buffer":0,
			"byteLength":128,
			"byteOffset":384,
			"target":34962
		},
		{
			"buffer":0,
			"byteLength":48,
			"byteOffset":512,
			"target":34963
		},
		{
			"buffer":0,
			"byteLength":192,
			"byteOffset":560,
			"target":34962
		},
		{
			"buffer":0,
			"byteLength":192,
			"byteOffset":752,
			"target":34962
		},
		{
			"buffer":0,
			"byteLength":128,
			"byteOffset":944,
			"target":34962
		},
		{
			"buffer":0,
			"byteLength":1452,
			"byteOffset":1072,
			"target":34962
		},
		{
			"buffer":0,
			"byteLength":1452,
			"byteOffset":2524,
			"target":34962
		},
		{
			"buffer":0,
			"byteLength":968,
			"byteOffset":3976,
			"target":34962
		},
		{
			"buffer":0,
			"byteLength":390,
			"byteOffset":4944,
			"target":34963
		}
	],
	"buffers":[
		{
			"byteLength":5336,
			"uri":"data:application/octet-stream;base64,"
		}
	]
}
