{
	"asset":{
		"generator":"Khronos glTF Blender I/O v5.0.21",
		"version":"2.0"
	},
	"scene":0,
	"scenes":[
		{
			"name":"Scene",
			"nodes":[
				0,
				1,
				2
			]
		}
	],
	"nodes":[
		{
			"mesh":0,
			"name":"arena",
			"scale":[
				30,
				35,
				180
			]
		},
		{
			"mesh":1,
			"name":"goal_1",
			"scale":[
				29.5,
				34.25,
				0.30000001192092896
			],
			"translation":[
				0,
				0,
				-177
			]
		},
		{
			"mesh":2,
			"name":"goal_2",
			"scale":[
				29.5,
				34.25,
				0.30000001192092896
			],
			"translation":[
				0,
				0,
				177
			]
		}
	],
	"meshes":[
		{
			"name":"arena",
			"primitives":[
				{
					"attributes":{
						"POSITION":0,
						"NORMAL":1,
						"TEXCOORD_0":2
					},
					"indices":3
				}
			]
		},
		{
			"name":"goal_1",
			"primitives":[
				{
					"attributes":{
						"POSITION":4,
						"NORMAL":5,
						"TEXCOORD_0":6
					},
					"indices":7
				}
			]
		},
		{
			"name":"goal_2",
			"primitives":[
				{
					"attributes":{
						"POSITION":8,
						"NORMAL":9,
						"TEXCOORD_0":10
					},
					"indices":11
				}
			]
		}
	],
	"accessors":[
		{
			"bufferView":0,
			"componentType":5126,
			"count":66,
			"max":[
				1.0115469694137573,
				1.0115469694137573,
				0.9926636219024658
			],
			"min":[
				-1.0115469694137573,
				-1.0115469694137573,
				-1.0008585453033447
			],
			"type":"VEC3"
		},
		{
			"bufferView":1,
			"componentType":5126,
			"count":66,
			"type":"VEC3"
		},
		{
			"bufferView":2,
			"componentType":5126,
			"count":66,
			"type":"VEC2"
		},
		{
			"bufferView":3,
			"componentType":5123,
			"count":126,
			"type":"SCALAR"
		},
		{
			"bufferView":4,
			"componentType":5126,
			"count":20,
			"max":[
				1,
				1,
				1
			],
			"min":[
				-1,
				-1,
				-1
			],
			"type":"VEC3"
		},
		{
			"bufferView":5,
			"componentType":5126,
			"count":20,
			"type":"VEC3"
		},
		{
			"bufferView":6,
			"componentType":5126,
			"count":20,
			"type":"VEC2"
		},
		{
			"bufferView":7,
			"componentType":5123,
			"count":30,
			"type":"SCALAR"
		},
		{
			"bufferView":8,
			"componentType":5126,
			"count":20,
			"max":[
				1,
				1,
				1
			],
			"min":[
				-1,
				-1,
				-1
			],
			"type":"VEC3"
		},
		{
			"bufferView":9,
			"componentType":5126,
			"count":20,
			"type":"VEC3"
		},
		{
			"bufferView":10,
			"componentType":5126,
			"count":20,
			"type":"VEC2"
		},
		{
			"bufferView":11,
			"componentType":5123,
			"count":30,
			"type":"SCALAR"
		}
	],
	"bufferViews":[
		{
			"buffer":0,
			"byteLength":792,
			"byteOffset":0,
			"target":34962
		},
		{
			"buffer":0,
			"byteLength":792,
			"byteOffset":792,
			"target":34962
		},
		{
			"buffer":0,
			"byteLength":528,
			"byteOffset":1584,
			"target":34962
		},
		{
			"buffer":0,
			"byteLength":252,
			"byteOffset":2112,
			"target":34963
		},
		{
			"buffer":0,
			"byteLength":240,
			"byteOffset":2364,
			"target":34962
		},
		{
			"buffer":0,
			"byteLength":240,
			"byteOffset":2604,
			"target":34962
		},
		{
			"buffer":0,
			"byteLength":160,
			"byteOffset":2844,
			"target":34962
		},
		{
			"buffer":0,
			"byteLength":60,
			"byteOffset":3004,
			"target":34963
		},
		{
			"buffer":0,
			"byteLength":240,
			"byteOffset":3064,
			"target":34962
		},
		{
			"buffer":0,
			"byteLength":240,
			"byteOffset":3304,
			"target":34962
		},
		{
			"buffer":0,
			"byteLength":160,
			"byteOffset":3544,
			"target":34962
		},
		{
			"buffer":0,
			"byteLength":60,
			"byteOffset":3704,
			"target":34963
		}
	],
	"buffers":[
		{
			"byteLength":3764,
			"uri":"data:application/octet-stream;base64,"
		}
	]
}
